<svg width="15" height="15" fill="none" xmlns="http://www.w3.org/2000/svg"><path d="M10.217 13.185a5.822 5.822 0 01-1.36-.171c-1.536-.37-3.118-1.31-4.453-2.647C3.07 9.03 2.127 7.448 1.757 5.914c-.39-1.615-.112-2.996.783-3.89l.255-.256a1.236 1.236 0 011.747 0L6.01 3.236a1.236 1.236 0 010 1.747l-.867.866c.415.73.98 1.46 1.65 2.128a10.237 10.237 0 002.127 1.65l.867-.867a1.235 1.235 0 011.747 0l1.468 1.467a1.235 1.235 0 010 1.747l-.256.255c-.63.632-1.504.956-2.53.956zm-6.549-10.9a.351.351 0 00-.251.104l-.256.256c-.67.67-.866 1.758-.551 3.061.333 1.38 1.19 2.816 2.414 4.039 1.224 1.224 2.658 2.08 4.04 2.414 1.303.315 2.39.12 3.06-.55l.256-.256a.356.356 0 000-.504l-1.468-1.468a.356.356 0 00-.503 0l-1.1 1.1a.44.44 0 01-.512.08c-.9-.467-1.809-1.145-2.626-1.962-.818-.818-1.494-1.725-1.961-2.626a.44.44 0 01.079-.513l1.1-1.099a.356.356 0 000-.503L3.92 2.389a.354.354 0 00-.252-.104z" fill="#727272"/><path d="M10.686 7.902a.44.44 0 01-.44-.44A2.911 2.911 0 007.34 4.556a.44.44 0 110-.88c2.088 0 3.787 1.7 3.787 3.788a.44.44 0 01-.44.44z" fill="#727272"/><path d="M12.543 7.902a.44.44 0 01-.439-.44 4.771 4.771 0 00-4.765-4.765.44.44 0 110-.879 5.65 5.65 0 015.644 5.645.44.44 0 01-.44.44z" fill="#727272"/></svg>