<svg id="Capa_1" version="1.1" viewBox="0 0 512 512" xml:space="preserve" xmlns="http://www.w3.org/2000/svg"><style>.st0{fill:#232323}</style><path class="st0" d="M453.8 128.9c0-.1 0-.1-.1-.2-.5-1.2-1.2-2.2-2-3.2 0 0 0-.1-.1-.1l-43.8-45.6V43.2c0-23-18.7-41.7-41.7-41.7H100.2c-23.6 0-42.7 19.2-42.7 42.7v386.5c0 23.6 19.2 42.7 42.7 42.7h4.2c1.9 21.8 20.3 39 42.5 39h264.8c23.6 0 42.7-19.2 42.7-42.7V132.6c.1-1.3-.2-2.6-.6-3.7zm-77.9-52.1l43.7 45.4h-43.7V76.8zm-297.5 354V44.2c0-12.1 9.8-21.9 21.9-21.9h265.9c11.5 0 20.8 9.3 20.8 20.8v15l-14-14.4s-.1 0-.1-.1c-.3-.3-.7-.6-1-.9-.2-.1-.3-.3-.5-.4-.5-.4-1.1-.7-1.7-.9h-.1c-1.3-.5-2.6-.8-4.1-.8H147c-23.6 0-42.7 19.2-42.7 42.7v369.4h-4c-12.1-.1-21.9-9.9-21.9-21.9zm333.4 60.8H147c-12.1 0-21.9-9.8-21.9-21.9V83.2c0-12.1 9.8-21.9 21.9-21.9h208v71.3c0 5.8 4.7 10.4 10.4 10.4h68.2v326.7c0 12.1-9.8 21.9-21.8 21.9z"/><path class="st0" d="M292.7 143.1h19.7c5.8 0 10.4-4.7 10.4-10.4 0-5.8-4.7-10.4-10.4-10.4h-19.7c-5.8 0-10.4 4.7-10.4 10.4-.1 5.7 4.6 10.4 10.4 10.4zm-122.4 0h65.8c5.8 0 10.4-4.7 10.4-10.4 0-5.8-4.7-10.4-10.4-10.4h-65.8c-5.8 0-10.4 4.7-10.4 10.4-.1 5.7 4.6 10.4 10.4 10.4zm210.5 244H236.1c-5.8 0-10.4 4.7-10.4 10.4s4.7 10.4 10.4 10.4h144.7c5.8 0 10.4-4.7 10.4-10.4s-4.6-10.4-10.4-10.4zm-185 0h-25.5c-5.8 0-10.4 4.7-10.4 10.4s4.7 10.4 10.4 10.4h25.5c5.8 0 10.4-4.7 10.4-10.4s-4.6-10.4-10.4-10.4zm185-65.2h-39.1c-5.8 0-10.4 4.7-10.4 10.4s4.7 10.4 10.4 10.4h39.1c5.8 0 10.4-4.7 10.4-10.4s-4.6-10.4-10.4-10.4zm-210.5 20.9h115.4c5.8 0 10.4-4.7 10.4-10.4s-4.7-10.4-10.4-10.4H170.3c-5.8 0-10.4 4.7-10.4 10.4s4.6 10.4 10.4 10.4zm210.5-86.2h-78.3c-5.8 0-10.4 4.7-10.4 10.4s4.7 10.4 10.4 10.4h78.3c5.8 0 10.4-4.7 10.4-10.4s-4.6-10.4-10.4-10.4zm-210.5 20.9H250c5.8 0 10.4-4.7 10.4-10.4s-4.7-10.4-10.4-10.4h-79.8c-5.8 0-10.4 4.7-10.4 10.4s4.7 10.4 10.5 10.4zm210.5-88.1H236.1c-5.8 0-10.4 4.7-10.4 10.4 0 5.8 4.7 10.4 10.4 10.4h144.7c5.8 0 10.4-4.7 10.4-10.4s-4.6-10.4-10.4-10.4zm-210.5 20.9h18.8c5.8 0 10.4-4.7 10.4-10.4 0-5.8-4.7-10.4-10.4-10.4h-18.8c-5.8 0-10.4 4.7-10.4 10.4-.1 5.7 4.6 10.4 10.4 10.4z"/></svg>