<svg width="35" height="35" xmlns="http://www.w3.org/2000/svg"><path d="M31.918 8.703a.821.821 0 00-1.148-.166l-13.232 9.876a.273.273 0 01-.328 0L4.238 8.493a.82.82 0 00-.995 1.304l10.2 7.801L3.354 25.2a.825.825 0 10.987 1.323l10.454-7.891 1.416 1.094a1.914 1.914 0 002.305.016l1.488-1.11 10.576 7.891a.82.82 0 00.982-1.315l-10.188-7.612 10.377-7.752a.82.82 0 00.166-1.14z"/><path d="M30.898 5.195H4.102A4.102 4.102 0 000 9.297v16.406a4.102 4.102 0 004.102 4.102h26.796A4.102 4.102 0 0035 25.703V9.297a4.102 4.102 0 00-4.102-4.102zm2.461 20.508a2.461 2.461 0 01-2.46 2.461H4.101a2.461 2.461 0 01-2.461-2.46V9.296a2.46 2.46 0 012.46-2.46h26.797a2.461 2.461 0 012.461 2.46v16.407z"/></svg>