<svg width="33" height="33" fill="none" xmlns="http://www.w3.org/2000/svg"><path fill-rule="evenodd" clip-rule="evenodd" d="M6.067 4.127L29.4 27.46l.003-.003.002.003-1.944 1.944-4.616-4.616c-1.728.806-3.823 1.337-6.344 1.337-10.439 0-13.576-9.098-13.606-9.19L2.75 16.5l.145-.434c.018-.059 1.277-3.711 4.833-6.393L4.125 6.07l1.942-1.943zM20.744 22.69l-2.47-2.471c-.54.26-1.142.407-1.774.407-2.258 0-4.125-1.867-4.125-4.125 0-.632.147-1.234.407-1.773L9.675 11.62c-2.43 1.67-3.605 3.93-4.015 4.88.687 1.587 3.522 6.875 10.84 6.875 1.628 0 3.034-.262 4.244-.686z" fill="#727272"/><path d="M13.063 7.234a16.031 16.031 0 013.437-.359c10.439 0 13.576 9.098 13.606 9.19l.144.435-.145.434c-.014.046-.784 2.279-2.81 4.532l-1.913-1.913A11.815 11.815 0 0027.34 16.5c-.687-1.587-3.522-6.875-10.84-6.875-.347 0-.684.012-1.011.035l-2.426-2.426z" fill="#727272"/></svg>