<svg width="23" height="23" fill="none" xmlns="http://www.w3.org/2000/svg"><g clip-path="url(#clip0_16_64)" fill="#000"><path d="M16.037.784H7.003a1.84 1.84 0 00-1.84 1.84V20.35a1.839 1.839 0 001.84 1.84h9.034a1.84 1.84 0 001.84-1.84V2.623a1.84 1.84 0 00-1.84-1.84zm-9.87 3.794h10.707v12.859H6.167V4.578zm.836-2.79h9.034a.837.837 0 01.837.835v.952H6.167v-.952a.836.836 0 01.836-.836zm9.034 19.398H7.003a.837.837 0 01-.836-.836v-1.91h10.707v1.91a.837.837 0 01-.837.836z"/><path d="M11.52 20.836a1.004 1.004 0 100-2.007 1.004 1.004 0 000 2.007zM10.204 3.162h2.635a.502.502 0 100-1.004h-2.635a.502.502 0 100 1.004z"/></g><defs><clipPath id="clip0_16_64"><path fill="#fff" transform="translate(.813 .784)" d="M0 0h21.414v21.405H0z"/></clipPath></defs></svg>