<svg width="36" height="36" fill="none" xmlns="http://www.w3.org/2000/svg"><path d="M18 2.268A15.746 15.746 0 0133.732 18v1.174A15.732 15.732 0 0118.756 33.71h-.72a15.732 15.732 0 010-31.464L18 2.268zM18 0a18 18 0 100 36h.835a18 18 0 0017.107-16.625c0-.259.015-.518.044-.777V18A18 18 0 0018 0z" fill="#231F20"/><path d="M24.185 11.06a.454.454 0 01.453-.454h.663a.454.454 0 01.453.453v.655a.46.46 0 01-.453.461h-.663a.461.461 0 01-.453-.46v-.656zm-2.765 0a.454.454 0 01.454-.454h.662a.454.454 0 01.454.453v.655a.46.46 0 01-.454.461h-.662a.461.461 0 01-.454-.46v-.656zm-2.758 0a.454.454 0 01.454-.454h.655a.46.46 0 01.461.453v.655a.46.46 0 01-.46.461h-.656a.461.461 0 01-.454-.46v-.656zm-2.764 0a.454.454 0 01.453-.454h.663a.454.454 0 01.453.453v.655a.46.46 0 01-.453.461h-.663a.461.461 0 01-.453-.46v-.656zm-2.765 0a.46.46 0 01.46-.454h.656a.454.454 0 01.453.453v.655a.46.46 0 01-.453.461h-.655a.46.46 0 01-.461-.46v-.656zm-2.758 0a.453.453 0 01.454-.454h.691a.454.454 0 01.454.453v.655a.46.46 0 01-.454.461h-.72a.461.461 0 01-.454-.46l.03-.656zm1.57 14.558a.454.454 0 01-.454.453H10.8a.453.453 0 01-.454-.453v-.663a.453.453 0 01.454-.475h.72a.454.454 0 01.454.454l-.03.684zm2.757 0a.454.454 0 01-.453.453h-.655a.461.461 0 01-.461-.453v-.663a.46.46 0 01.46-.453h.656a.454.454 0 01.453.453v.663zm2.765 0a.454.454 0 01-.453.453h-.663a.453.453 0 01-.453-.453v-.663a.454.454 0 01.453-.453h.663a.454.454 0 01.453.453v.663zm2.765 0a.46.46 0 01-.46.453h-.656a.453.453 0 01-.454-.453v-.663a.454.454 0 01.454-.453h.655a.46.46 0 01.461.453v.663zm2.758 0a.454.454 0 01-.454.453h-.662a.461.461 0 01-.454-.453v-.663a.454.454 0 01.454-.453h.662a.454.454 0 01.454.453v.663zm2.764 0a.46.46 0 01-.453.453h-.663a.453.453 0 01-.453-.453v-.663a.454.454 0 01.453-.453h.663a.453.453 0 01.453.453v.663zm.555-2.657a.957.957 0 01-.663.907H10.483a.943.943 0 01-.662-.907v-9.202a.957.957 0 01.979-.957h14.551a.965.965 0 01.958.957v9.202zm.554-12.665a.856.856 0 00-.662-.324H9.929a.842.842 0 00-.843.828v15.055a.85.85 0 00.317.663c.15.118.335.182.526.18H26.2a.843.843 0 00.842-.843V10.8a.87.87 0 00-.18-.504zm-4.226 7.452L14.86 14.4a.676.676 0 00-.943.62v6.724a.67.67 0 00.943.612l7.776-3.384a.67.67 0 000-1.224z" fill="#231F20"/></svg>