<svg width="36" height="36" fill="none" xmlns="http://www.w3.org/2000/svg"><path d="M28.332 11.693v12.24a.778.778 0 01-.778.777h-8.697a.872.872 0 01-1.418.515.886.886 0 01-.303-.515h-8.69a.814.814 0 01-.483-.165.777.777 0 01-.295-.612v-12.24a.777.777 0 01.778-.778h1.44c-.303.115-.605.245-.9.382a.468.468 0 00-.252.396v12.24a.252.252 0 00.381.23 9.95 9.95 0 018.64 0c.045.01.092.01.137 0a.252.252 0 00.1 0 .245.245 0 00.224 0 9.95 9.95 0 018.64 0c.045.01.092.01.137 0a.251.251 0 00.245-.266v-12.24a.482.482 0 00-.252-.396 14.039 14.039 0 00-.9-.382h1.44a.778.778 0 01.619.31c.117.142.183.32.187.504zm-10.483 0V23.89a10.232 10.232 0 00-8.827 0V11.693a.166.166 0 01.079-.123 9.878 9.878 0 014.32-1 9.878 9.878 0 014.32 1 .165.165 0 01.108.123zm-.447.201a9.468 9.468 0 00-7.92 0v11.312a10.598 10.598 0 017.92 0V11.894zm9.576-.201V23.89a10.232 10.232 0 00-8.827 0V11.693a.165.165 0 01.08-.123 9.886 9.886 0 018.669 0 .167.167 0 01.078.123zm-.446.201a9.468 9.468 0 00-7.92 0v11.312a10.598 10.598 0 017.92 0V11.894zm-15.991 8.892a6.947 6.947 0 015.76 0 .302.302 0 00.404-.38.295.295 0 00-.16-.167 7.546 7.546 0 00-6.285 0 .295.295 0 00.13.569.367.367 0 00.15-.022zm0-2.275a6.998 6.998 0 015.76 0 .294.294 0 00.37.012.294.294 0 00.09-.36.296.296 0 00-.201-.163 7.546 7.546 0 00-6.286 0 .295.295 0 00.13.569.252.252 0 00.137-.058zm0-2.268a6.998 6.998 0 015.76 0 .296.296 0 10.245-.54 7.546 7.546 0 00-6.286 0 .295.295 0 00.13.569.252.252 0 00.15-.029zm0-2.268a6.998 6.998 0 015.76 0 .296.296 0 10.245-.54 7.546 7.546 0 00-6.286 0 .295.295 0 00.13.569.252.252 0 00.15-.029zm9.13 6.811a6.947 6.947 0 015.76 0 .301.301 0 00.46-.258.304.304 0 00-.216-.289 7.546 7.546 0 00-6.285 0 .297.297 0 00-.173.283.302.302 0 00.302.286l.151-.022zm0-2.275a6.998 6.998 0 015.76 0 .295.295 0 00.395-.144.302.302 0 00-.122-.367 7.545 7.545 0 00-6.264 0 .297.297 0 00-.173.283.302.302 0 00.302.286.274.274 0 00.101-.058zm0-2.268a6.998 6.998 0 015.76 0 .295.295 0 00.395-.144.303.303 0 00-.15-.396 7.546 7.546 0 00-6.286 0 .297.297 0 00-.173.283.302.302 0 00.302.286.273.273 0 00.151-.029zm0-2.268a6.998 6.998 0 015.76 0 .295.295 0 00.395-.144.303.303 0 00-.15-.396 7.546 7.546 0 00-6.286 0 .297.297 0 00-.173.283.302.302 0 00.302.286.273.273 0 00.151-.029z" fill="#231F20"/><path d="M18.007 3.142a14.88 14.88 0 0110.506 4.356A14.868 14.868 0 0132.871 18v1.108a14.855 14.855 0 01-4.47 9.548 14.866 14.866 0 01-9.68 4.182h-.68a14.867 14.867 0 01-10.51-4.352 14.855 14.855 0 010-21.013 14.867 14.867 0 0110.51-4.351l-.034.02zm0-2.142A17.01 17.01 0 005.98 5.98a16.997 16.997 0 000 24.04A17.01 17.01 0 0018.007 35h.789a17.01 17.01 0 0011.057-4.79A16.997 16.997 0 0034.96 19.3c0-.245.014-.49.041-.735V18a17 17 0 00-4.976-12.016A17.01 17.01 0 0018.007 1z" fill="#231F20"/></svg>