<svg width="10" height="16" fill="none" xmlns="http://www.w3.org/2000/svg"><g clip-path="url(#clip0_16_164)" fill="#727272"><path d="M7.769.873a4.827 4.827 0 00-5.538 0C.064 2.371-.629 5.291.618 7.663L5 16l4.382-8.337c1.248-2.372.555-5.292-1.613-6.79zm.748 6.3L5 13.864l-3.517-6.69c-1-1.904-.445-4.246 1.295-5.448a3.896 3.896 0 012.22-.701c.775 0 1.547.233 2.222.7 1.74 1.203 2.296 3.545 1.296 5.45z"/><path d="M5 2.133c-1.36 0-2.467 1.149-2.467 2.56 0 1.41 1.107 2.56 2.467 2.56s2.467-1.15 2.467-2.56c0-1.411-1.106-2.56-2.467-2.56zm0 4.096c-.816 0-1.48-.69-1.48-1.536 0-.847.664-1.536 1.48-1.536s1.48.689 1.48 1.536c0 .846-.664 1.536-1.48 1.536z"/></g><defs><clipPath id="clip0_16_164"><path fill="#fff" d="M0 0h10v16H0z"/></clipPath></defs></svg>