<svg viewBox="0 0 30 71" fill="#38C5F4" xmlns="http://www.w3.org/2000/svg"><path d="M12.129 2.982v11.86c0 .817.119 1.573.312 1.98l7.882 16.687c.416.881.416 3.082 0 3.963l-7.882 16.687c-.193.409-.312 1.164-.312 1.98V68c0 1.76.52 2.862.936 1.981L28.42 37.472c.416-.88.416-3.082 0-3.963L13.065 1.001c-.416-.88-.936.22-.936 1.98z"/><path d="M12.44 54.158l.927-1.962c.005.062.01.13.013.195l-.16.337c-.193.41-.312 1.164-.312 1.981v11.86c0 1.442.35 2.421.704 2.253l-.548 1.158c-.416.88-.936-.22-.936-1.98V56.138c0-.817.12-1.572.313-1.98zm7.884-20.648L12.44 16.822c-.193-.41-.312-1.164-.312-1.98V2.981c0-1.595.426-2.632.816-2.162a7.873 7.873 0 00-.036.732v11.86c0 .817.119 1.573.312 1.98l7.883 16.687c.03.075.29.738.312 1.98.022 1.304-.238 2.099-.263 2.172l-.747 1.899a3.805 3.805 0 00-.022-.83c.35-.96.332-2.958-.06-3.79z"/><path d="M12.129 2.982v11.86c0 .817.119 1.573.312 1.98l7.882 16.687c.416.881.416 3.082 0 3.963l-7.882 16.687c-.193.409-.312 1.164-.312 1.98V68c0 1.76.52 2.862.936 1.981L28.42 37.472c.416-.88.416-3.082 0-3.963L13.065 1.001c-.416-.88-.936.22-.936 1.98z"/><path d="M1.437 2.982v11.86c0 .817.12 1.573.312 1.98L9.632 33.51c.415.881.415 3.082 0 3.963L1.749 54.159c-.193.409-.312 1.164-.312 1.98V68c0 1.76.52 2.862.936 1.981L17.73 37.472c.415-.88.415-3.082 0-3.963L2.373 1.001c-.416-.88-.936.22-.936 1.98z"/><path d="M1.75 54.158l.926-1.962c.005.062.009.13.012.195l-.159.337c-.193.41-.312 1.164-.312 1.981v11.86c0 1.442.349 2.421.703 2.253l-.547 1.158c-.416.88-.936-.22-.936-1.98V56.138c0-.817.12-1.572.312-1.98zM9.632 33.51L1.749 16.822c-.193-.41-.312-1.164-.312-1.98V2.981c0-1.595.426-2.632.816-2.162a7.887 7.887 0 00-.036.732v11.86c0 .817.119 1.573.312 1.98l7.883 16.687c.03.075.29.738.312 1.98.022 1.304-.238 2.099-.263 2.172l-.747 1.899a3.806 3.806 0 00-.022-.83c.35-.96.333-2.958-.06-3.79z"/><path d="M1.437 2.982v11.86c0 .817.12 1.573.312 1.98L9.632 33.51c.415.881.415 3.082 0 3.963L1.749 54.159c-.193.409-.312 1.164-.312 1.98V68c0 1.76.52 2.862.936 1.981L17.73 37.472c.415-.88.415-3.082 0-3.963L2.373 1.001c-.416-.88-.936.22-.936 1.98z"/></svg>