<svg viewBox="0 0 32 79" fill="#38C5F4" xmlns="http://www.w3.org/2000/svg"><path d="M19.217 3.798V16.82c0 .896-.131 1.727-.344 2.174l-8.691 18.32c-.459.968-.459 3.384 0 4.351l8.69 18.32c.214.45.345 1.278.345 2.175v13.022c0 1.932-.573 3.141-1.032 2.174L1.254 41.666c-.459-.968-.459-3.384 0-4.351l16.93-35.691c.46-.967 1.033.242 1.033 2.174z"/><path d="M18.873 59.986l-1.022-2.154a7.28 7.28 0 00-.014.213l.176.37c.213.45.344 1.279.344 2.175v13.022c0 1.582-.384 2.658-.775 2.472l.604 1.272c.458.967 1.031-.242 1.031-2.174V62.16c0-.896-.131-1.725-.344-2.174zm-8.691-22.671l8.691-18.32c.213-.45.344-1.279.344-2.175V3.798c0-1.75-.47-2.889-.9-2.374.024.252.04.515.04.804V15.25c0 .896-.131 1.727-.344 2.174l-8.691 18.32c-.034.082-.32.81-.344 2.175-.025 1.43.262 2.303.29 2.383l.823 2.085c-.014-.176-.03-.49.008-.8.005-.04.01-.077.016-.11-.385-1.055-.366-3.249.067-4.162z"/><path d="M19.217 3.798V16.82c0 .896-.131 1.727-.344 2.174l-8.691 18.32c-.459.968-.459 3.384 0 4.351l8.69 18.32c.214.45.345 1.278.345 2.175v13.022c0 1.932-.573 3.141-1.032 2.174L1.254 41.666c-.459-.968-.459-3.384 0-4.351l16.93-35.691c.46-.967 1.033.242 1.033 2.174z"/><path d="M31.005 3.798V16.82c0 .896-.131 1.727-.344 2.174l-8.69 18.32c-.46.968-.46 3.384 0 4.351l8.69 18.32c.213.45.344 1.278.344 2.175v13.022c0 1.932-.573 3.141-1.031 2.174l-16.932-35.69c-.459-.968-.459-3.384 0-4.351l16.93-35.691c.46-.967 1.033.242 1.033 2.174z"/><path d="M30.661 59.986l-1.022-2.154-.014.213.176.37c.213.45.344 1.279.344 2.175v13.022c0 1.582-.384 2.658-.775 2.472l.604 1.272c.458.967 1.031-.242 1.031-2.174V62.16c0-.896-.131-1.725-.344-2.174zM21.97 37.315l8.691-18.32c.213-.45.344-1.279.344-2.175V3.798c0-1.75-.47-2.889-.899-2.374.023.252.04.515.04.804V15.25c0 .896-.132 1.727-.345 2.174l-8.69 18.32c-.034.082-.321.81-.345 2.175-.024 1.43.262 2.303.29 2.383l.823 2.085c-.013-.176-.03-.49.009-.8.004-.04.01-.077.016-.11-.386-1.055-.367-3.249.066-4.162z"/><path d="M31.005 3.798V16.82c0 .896-.131 1.727-.344 2.174l-8.69 18.32c-.46.968-.46 3.384 0 4.351l8.69 18.32c.213.45.344 1.278.344 2.175v13.022c0 1.932-.573 3.141-1.031 2.174l-16.932-35.69c-.459-.968-.459-3.384 0-4.351l16.93-35.691c.46-.967 1.033.242 1.033 2.174z"/></svg>